<mxfile host="app.diagrams.net" modified="2021-03-01T11:06:44.371Z" agent="5.0 (Windows NT 10.0; Win64; x64) AppleWebKit/537.36 (KHTML, like Gecko) Chrome/88.0.4324.190 Safari/537.36" etag="5kPRVCKJulL9F6rVNXA2" version="14.4.3" type="github">
  <diagram id="u0jsGPL0NDHtBA2eIrma" name="Page-1">
    <mxGraphModel dx="2272" dy="737" grid="1" gridSize="10" guides="1" tooltips="1" connect="1" arrows="1" fold="1" page="1" pageScale="1" pageWidth="850" pageHeight="1100" background="#114B5F" math="0" shadow="0">
      <root>
        <mxCell id="0" />
        <mxCell id="1" parent="0" />
        <mxCell id="ldq4RUyXctAk_ogEGEMd-15" value="" style="shape=actor;whiteSpace=wrap;html=1;fillColor=#F45B69;strokeColor=#028090;fontColor=#E4FDE1;" parent="1" vertex="1">
          <mxGeometry x="250" y="220" width="50" height="60" as="geometry" />
        </mxCell>
        <mxCell id="ldq4RUyXctAk_ogEGEMd-17" value="" style="shape=actor;whiteSpace=wrap;html=1;fillColor=#F45B69;strokeColor=#028090;fontColor=#E4FDE1;" parent="1" vertex="1">
          <mxGeometry x="320" y="220" width="50" height="60" as="geometry" />
        </mxCell>
        <mxCell id="ldq4RUyXctAk_ogEGEMd-18" value="" style="shape=actor;whiteSpace=wrap;html=1;fillColor=#F45B69;strokeColor=#028090;fontColor=#E4FDE1;" parent="1" vertex="1">
          <mxGeometry x="390" y="220" width="50" height="60" as="geometry" />
        </mxCell>
        <mxCell id="ldq4RUyXctAk_ogEGEMd-19" value="" style="shape=actor;whiteSpace=wrap;html=1;fillColor=#F45B69;strokeColor=#028090;fontColor=#E4FDE1;" parent="1" vertex="1">
          <mxGeometry x="460" y="220" width="50" height="60" as="geometry" />
        </mxCell>
        <mxCell id="ldq4RUyXctAk_ogEGEMd-20" value="" style="shape=actor;whiteSpace=wrap;html=1;fillColor=#F45B69;strokeColor=#028090;fontColor=#E4FDE1;" parent="1" vertex="1">
          <mxGeometry x="530" y="220" width="50" height="60" as="geometry" />
        </mxCell>
        <mxCell id="ldq4RUyXctAk_ogEGEMd-21" value="&lt;font style=&quot;font-size: 13px&quot;&gt;Users&lt;/font&gt;" style="text;html=1;align=center;verticalAlign=middle;whiteSpace=wrap;fontStyle=1;fontColor=#E4FDE1;" parent="1" vertex="1">
          <mxGeometry x="390" y="260" width="50" height="20" as="geometry" />
        </mxCell>
        <mxCell id="ldq4RUyXctAk_ogEGEMd-22" value="Text" style="text;html=1;strokeColor=none;fillColor=none;align=center;verticalAlign=middle;whiteSpace=wrap;fontColor=#E4FDE1;" parent="1" vertex="1">
          <mxGeometry x="-290" y="400" width="40" height="20" as="geometry" />
        </mxCell>
        <mxCell id="ldq4RUyXctAk_ogEGEMd-23" value="" style="shape=flexArrow;endArrow=classic;html=1;width=1;endSize=6.03;fillColor=#F45B69;strokeColor=#028090;fontColor=#E4FDE1;labelBackgroundColor=#114B5F;" parent="1" edge="1">
          <mxGeometry width="50" height="50" relative="1" as="geometry">
            <mxPoint x="274.5" y="360" as="sourcePoint" />
            <mxPoint x="274.5" y="280" as="targetPoint" />
          </mxGeometry>
        </mxCell>
        <mxCell id="ldq4RUyXctAk_ogEGEMd-26" value="" style="shape=flexArrow;endArrow=classic;html=1;width=1;endSize=6.03;fillColor=#F45B69;strokeColor=#028090;fontColor=#E4FDE1;labelBackgroundColor=#114B5F;" parent="1" edge="1">
          <mxGeometry width="50" height="50" relative="1" as="geometry">
            <mxPoint x="344.5" y="361" as="sourcePoint" />
            <mxPoint x="344.5" y="281" as="targetPoint" />
          </mxGeometry>
        </mxCell>
        <mxCell id="ldq4RUyXctAk_ogEGEMd-28" value="" style="shape=flexArrow;endArrow=classic;html=1;width=1;endSize=6.03;fillColor=#F45B69;strokeColor=#028090;fontColor=#E4FDE1;labelBackgroundColor=#114B5F;" parent="1" edge="1">
          <mxGeometry width="50" height="50" relative="1" as="geometry">
            <mxPoint x="481.5" y="363" as="sourcePoint" />
            <mxPoint x="481.5" y="283" as="targetPoint" />
          </mxGeometry>
        </mxCell>
        <mxCell id="ldq4RUyXctAk_ogEGEMd-29" value="" style="shape=flexArrow;endArrow=classic;html=1;width=1;endSize=6.03;fillColor=#F45B69;strokeColor=#028090;fontColor=#E4FDE1;labelBackgroundColor=#114B5F;" parent="1" edge="1">
          <mxGeometry width="50" height="50" relative="1" as="geometry">
            <mxPoint x="556.5" y="363" as="sourcePoint" />
            <mxPoint x="556.5" y="283" as="targetPoint" />
          </mxGeometry>
        </mxCell>
        <mxCell id="ldq4RUyXctAk_ogEGEMd-31" value="" style="whiteSpace=wrap;html=1;sketch=0;strokeColor=#028090;fillColor=#F45B69;fontColor=#E4FDE1;" parent="1" vertex="1">
          <mxGeometry x="370" y="430" width="120" height="60" as="geometry" />
        </mxCell>
        <mxCell id="ldq4RUyXctAk_ogEGEMd-32" value="Support Team" style="text;html=1;align=center;verticalAlign=middle;whiteSpace=wrap;sketch=0;fontStyle=1;fontColor=#E4FDE1;" parent="1" vertex="1">
          <mxGeometry x="395" y="450" width="60" height="20" as="geometry" />
        </mxCell>
        <mxCell id="ldq4RUyXctAk_ogEGEMd-33" value="" style="endArrow=none;html=1;strokeColor=#028090;strokeWidth=2;fillColor=#F45B69;fontColor=#E4FDE1;labelBackgroundColor=#114B5F;" parent="1" edge="1">
          <mxGeometry width="50" height="50" relative="1" as="geometry">
            <mxPoint x="424" y="430" as="sourcePoint" />
            <mxPoint x="424" y="360" as="targetPoint" />
          </mxGeometry>
        </mxCell>
        <mxCell id="ldq4RUyXctAk_ogEGEMd-45" value="" style="endArrow=none;html=1;strokeColor=#028090;strokeWidth=2;fillColor=#F45B69;fontColor=#E4FDE1;labelBackgroundColor=#114B5F;" parent="1" edge="1">
          <mxGeometry width="50" height="50" relative="1" as="geometry">
            <mxPoint x="120" y="570" as="sourcePoint" />
            <mxPoint x="750" y="570" as="targetPoint" />
          </mxGeometry>
        </mxCell>
        <mxCell id="ldq4RUyXctAk_ogEGEMd-46" value="" style="endArrow=classic;html=1;strokeColor=#028090;strokeWidth=2;fillColor=#F45B69;fontColor=#E4FDE1;labelBackgroundColor=#114B5F;" parent="1" edge="1">
          <mxGeometry width="50" height="50" relative="1" as="geometry">
            <mxPoint x="120" y="570" as="sourcePoint" />
            <mxPoint x="120" y="650" as="targetPoint" />
          </mxGeometry>
        </mxCell>
        <mxCell id="ldq4RUyXctAk_ogEGEMd-47" value="" style="endArrow=classic;html=1;strokeColor=#028090;strokeWidth=2;fillColor=#F45B69;fontColor=#E4FDE1;labelBackgroundColor=#114B5F;" parent="1" edge="1">
          <mxGeometry width="50" height="50" relative="1" as="geometry">
            <mxPoint x="290" y="570" as="sourcePoint" />
            <mxPoint x="290" y="650" as="targetPoint" />
          </mxGeometry>
        </mxCell>
        <mxCell id="ldq4RUyXctAk_ogEGEMd-48" value="" style="endArrow=classic;html=1;strokeColor=#028090;strokeWidth=2;fillColor=#F45B69;fontColor=#E4FDE1;labelBackgroundColor=#114B5F;" parent="1" edge="1">
          <mxGeometry width="50" height="50" relative="1" as="geometry">
            <mxPoint x="580" y="570" as="sourcePoint" />
            <mxPoint x="580" y="650" as="targetPoint" />
          </mxGeometry>
        </mxCell>
        <mxCell id="ldq4RUyXctAk_ogEGEMd-49" value="" style="endArrow=classic;html=1;strokeColor=#028090;strokeWidth=2;fillColor=#F45B69;fontColor=#E4FDE1;labelBackgroundColor=#114B5F;" parent="1" edge="1">
          <mxGeometry width="50" height="50" relative="1" as="geometry">
            <mxPoint x="750" y="570" as="sourcePoint" />
            <mxPoint x="750" y="650" as="targetPoint" />
          </mxGeometry>
        </mxCell>
        <mxCell id="ldq4RUyXctAk_ogEGEMd-59" value="" style="endArrow=classic;html=1;strokeColor=#028090;strokeWidth=2;fillColor=#F45B69;fontColor=#E4FDE1;exitX=0.575;exitY=1.017;exitDx=0;exitDy=0;exitPerimeter=0;labelBackgroundColor=#114B5F;" parent="1" edge="1">
          <mxGeometry width="50" height="50" relative="1" as="geometry">
            <mxPoint x="429" y="491.02" as="sourcePoint" />
            <mxPoint x="430" y="650" as="targetPoint" />
          </mxGeometry>
        </mxCell>
        <mxCell id="ldq4RUyXctAk_ogEGEMd-67" value="" style="line;strokeWidth=4;html=1;perimeter=backbonePerimeter;points=[];outlineConnect=0;sketch=0;fillColor=#F45B69;fontColor=#E4FDE1;strokeColor=#028090;labelBackgroundColor=#114B5F;" parent="1" vertex="1">
          <mxGeometry x="273" y="357" width="286" height="10" as="geometry" />
        </mxCell>
        <mxCell id="ldq4RUyXctAk_ogEGEMd-70" value="" style="shape=ext;double=1;whiteSpace=wrap;html=1;sketch=0;strokeColor=#028090;fillColor=#F45B69;fontColor=#E4FDE1;" parent="1" vertex="1">
          <mxGeometry x="60" y="650" width="120" height="80" as="geometry" />
        </mxCell>
        <mxCell id="ldq4RUyXctAk_ogEGEMd-72" value="Problem Management" style="shape=ext;double=1;whiteSpace=wrap;html=1;sketch=0;strokeColor=#028090;fillColor=#F45B69;fontColor=#E4FDE1;fontStyle=1;" parent="1" vertex="1">
          <mxGeometry x="230" y="650" width="120" height="80" as="geometry" />
        </mxCell>
        <mxCell id="ldq4RUyXctAk_ogEGEMd-73" value="Configuration Management" style="shape=ext;double=1;whiteSpace=wrap;html=1;sketch=0;strokeColor=#028090;fillColor=#F45B69;fontColor=#E4FDE1;fontStyle=1;" parent="1" vertex="1">
          <mxGeometry x="380" y="650" width="120" height="80" as="geometry" />
        </mxCell>
        <mxCell id="ldq4RUyXctAk_ogEGEMd-74" value="Change Management" style="shape=ext;double=1;whiteSpace=wrap;html=1;sketch=0;strokeColor=#028090;fillColor=#F45B69;fontColor=#E4FDE1;fontStyle=1;" parent="1" vertex="1">
          <mxGeometry x="530" y="650" width="120" height="80" as="geometry" />
        </mxCell>
        <mxCell id="ldq4RUyXctAk_ogEGEMd-75" value="Release Management" style="shape=ext;double=1;whiteSpace=wrap;html=1;sketch=0;strokeColor=#028090;fillColor=#F45B69;fontColor=#E4FDE1;fontStyle=1;" parent="1" vertex="1">
          <mxGeometry x="680" y="650" width="120" height="80" as="geometry" />
        </mxCell>
        <mxCell id="ldq4RUyXctAk_ogEGEMd-80" value="Incident Management" style="text;html=1;strokeColor=none;fillColor=none;align=center;verticalAlign=middle;whiteSpace=wrap;sketch=0;fontColor=#E4FDE1;fontStyle=1;" parent="1" vertex="1">
          <mxGeometry x="70" y="660" width="100" height="50" as="geometry" />
        </mxCell>
      </root>
    </mxGraphModel>
  </diagram>
</mxfile>
